<?xml version="1.0" encoding="UTF-8" standalone="no"?>
<!DOCTYPE svg PUBLIC "-//W3C//DTD SVG 1.1//EN"
        "http://www.w3.org/Graphics/SVG/1.1/DTD/svg11.dtd">
<svg width="418" height="104" xmlns="http://www.w3.org/2000/svg" xmlns:xlink="http://www.w3.org/1999/xlink"><defs id="SvgjsDefs1676"></defs><g id="main_text" rel="mainfill" name="main_text" feature="main_text" xmlns:name="mainText_mainfill" groupname="main_text" fill="#ffffff" transform="translate(97.63129309761335, -12.480904515110325) scale(3.4374032705807434)"><path d="M16.644 10.441 c0.11864 0 0.20339 0.10186 0.20339 0.23746 l0 13.085 c0 0.15254 -0.084746 0.23712 -0.22034 0.23712 l-0.88136 0 c-0.16949 0 -0.23729 -0.08458 -0.23729 -0.23712 l0 -10.61 l-6.1697 10.407 c-0.067797 0.11864 -0.13559 0.16949 -0.25424 0.16949 l-0.067797 0 c-0.10169 0 -0.18644 -0.050847 -0.25424 -0.16949 l-6.1525 -10.407 l0 10.61 c0 0.15254 -0.084746 0.23712 -0.22034 0.23712 l-0.88136 0 c-0.15254 0 -0.23729 -0.08458 -0.23729 -0.23712 l0 -13.102 c0 -0.11881 0.067797 -0.22051 0.20339 -0.22051 l0.81356 0 c0.11864 0 0.18644 0.050847 0.25424 0.15271 l6.5086 10.983 l6.5254 -10.983 c0.050847 -0.10186 0.11864 -0.15271 0.27119 -0.15271 l0.79661 0 z M26.22014406779661 20.3731 c0.47458 0 0.81356 -0.18661 0.81356 -0.79678 c0 -2.1695 -1.678 -4.0847 -4.1017 -4.0847 c-2.3559 0 -4.1695 1.8814 -4.1695 4.3051 c0 2.5085 1.9153 4.3047 4.2881 4.3047 c1.4915 0 2.661 -0.71153 3.4237 -1.6946 c0.084746 -0.11864 0.067797 -0.20339 -0.033898 -0.30508 l-0.22034 -0.28814 c-0.10153 -0.13559 -0.22034 -0.11864 -0.33898 -0.016784 c-0.64407 0.64407 -1.5763 1.1525 -2.7119 1.1525 c-1.8136 0 -2.8983 -1.2712 -3.0507 -2.5763 l6.1015 0 z M20.10154406779661 19.339 c0.033898 -1.1356 0.9322 -2.661 2.8136 -2.661 s2.7458 1.5763 2.7966 2.661 l-5.6102 0 z M35.83036610169491 10.441 c0.27119 0 0.44068 0.16949 0.44068 0.4239 l0 12.932 c0 0.11864 -0.084746 0.20322 -0.18661 0.20322 l-0.47441 0 c-0.28814 0 -0.61017 -0.18644 -0.61017 -0.52542 l0 -0.27119 c-0.69492 0.52559 -1.6441 0.91508 -2.678 0.91508 c-2.4068 0 -3.9661 -1.949 -3.9661 -4.3727 c0 -2.5593 1.9661 -4.2034 3.9661 -4.2034 c1.2203 0 2.0508 0.39 2.678 0.81356 l0 -4.678 c0 -0.42373 -0.067797 -0.67814 -0.10169 -0.9661 c-0.016949 -0.15254 0.033898 -0.27119 0.15254 -0.27119 l0.77966 0 z M32.52526610169491 22.9324 c1.0339 0 1.8305 -0.38983 2.4746 -0.83051 l0 -4.5254 c-0.71186 -0.49153 -1.5254 -0.83051 -2.4746 -0.83051 c-1.339 0 -2.8983 0.9322 -2.8983 3 c0 1.8983 1.2373 3.1864 2.8983 3.1864 z M39.22033559322034 11.949 c-0.42373 0 -0.74576 -0.32203 -0.74576 -0.72881 s0.32203 -0.72881 0.74576 -0.72881 c0.38983 0 0.72881 0.32203 0.72881 0.72881 s-0.33898 0.72881 -0.72881 0.72881 z M39.64403559322034 15.6102 l-0.84746 -0.00016552 c-0.15254 0 -0.22034 0.067797 -0.22034 0.22034 l0 7.7119 c0 0.27119 0.15254 0.45763 0.42373 0.45763 l0.66102 0 c0.11864 0 0.20339 -0.08458 0.20339 -0.22017 l0 -7.9492 c0 -0.15254 -0.084746 -0.22034 -0.22034 -0.22034 z M49.10149322033898 23.67797 c-0.16949 -1.6441 -0.18661 -3.2714 -0.11881 -4.9154 c0.084746 -1.9661 -0.9661 -3.2542 -3.0339 -3.2542 c-1.339 0 -2.6947 0.40678 -3.5253 0.86441 c-0.13559 0.067797 -0.20339 0.20339 -0.13559 0.32203 l0.28814 0.64407 c0.050847 0.13559 0.15254 0.16949 0.32203 0.084746 c1.1695 -0.55915 2.0678 -0.77949 3 -0.77949 c1.2034 0 1.8983 0.61017 1.8475 1.9322 c-3.5763 0.61017 -5.8475 1.2034 -5.8475 3.2712 c0 1.3729 1.0169 2.2373 2.7288 2.2373 c1.4576 0 2.322 -0.45763 3.2373 -1.0339 c0.050847 0.50847 0.15254 0.94915 0.37288 0.94915 l0.71186 0 c0.15254 0 0.18644 -0.13543 0.15254 -0.32203 z M44.847093220338984 23.05068 c-0.88136 0 -1.6441 -0.33898 -1.6441 -1.2203 c0 -1.339 2.2203 -1.678 4.5254 -2.1525 c-0.033898 0.77966 -0.033898 1.7119 0 2.4068 c-0.62712 0.42373 -1.7458 0.9661 -2.8814 0.9661 z  M67.18642372881357 21.729 c0.11864 0.08458 0.084746 0.22017 -0.067797 0.37271 c-1.2544 1.2542 -2.8814 2.0168 -4.8983 2.0168 c-3.8136 0 -6.9322 -3.0168 -6.9322 -6.8812 c0 -3.8475 3.1186 -6.9153 6.9322 -6.9153 c1.9322 0 3.661 0.74576 4.9322 2.0169 c0.15254 0.15254 0.16949 0.27119 0.067797 0.35593 l-0.71186 0.59322 c-0.11864 0.10169 -0.22034 0.10169 -0.33898 -0.016949 c-0.71186 -0.74559 -2.1186 -1.6608 -3.8475 -1.6608 c-3.678 0 -5.7119 2.9831 -5.7119 5.6271 c0 2.678 2.0339 5.5932 5.7119 5.5932 c1.7288 0 3.0508 -0.88136 3.7966 -1.6271 c0.13559 -0.13559 0.23729 -0.16949 0.35593 -0.067797 z M76.0336966101695 23.67797 c-0.16949 -1.6441 -0.18661 -3.2714 -0.11881 -4.9154 c0.084746 -1.9661 -0.9661 -3.2542 -3.0339 -3.2542 c-1.339 0 -2.6947 0.40678 -3.5253 0.86441 c-0.13559 0.067797 -0.20339 0.20339 -0.13559 0.32203 l0.28814 0.64407 c0.050847 0.13559 0.15254 0.16949 0.32203 0.084746 c1.1695 -0.55915 2.0678 -0.77949 3 -0.77949 c1.2034 0 1.8983 0.61017 1.8475 1.9322 c-3.5763 0.61017 -5.8475 1.2034 -5.8475 3.2712 c0 1.3729 1.0169 2.2373 2.7288 2.2373 c1.4576 0 2.322 -0.45763 3.2373 -1.0339 c0.050847 0.50847 0.15254 0.94915 0.37288 0.94915 l0.71186 0 c0.15254 0 0.18644 -0.13543 0.15254 -0.32203 z M71.7792966101695 23.05068 c-0.88136 0 -1.6441 -0.33898 -1.6441 -1.2203 c0 -1.339 2.2203 -1.678 4.5254 -2.1525 c-0.033898 0.77966 -0.033898 1.7119 0 2.4068 c-0.62712 0.42373 -1.7458 0.9661 -2.8814 0.9661 z M84.72860169491526 10.949 c0.10169 0.067797 0.16949 0.1871 0.11864 0.30575 l-0.32203 0.67797 c-0.067797 0.13543 -0.16949 0.15238 -0.30508 0.10153 c-0.27119 -0.16949 -0.79661 -0.47475 -1.5593 -0.47475 s-2.2373 0.35593 -2.2373 2.2373 l0 1.8134 l2.4576 0 c0.10169 0 0.16949 0.050847 0.16949 0.16949 l0 0.84746 c0 0.11864 -0.067797 0.18644 -0.16949 0.18644 l-2.4576 0 l0 6.9492 c0 0.15254 -0.067797 0.23712 -0.20339 0.23712 l-0.64407 0 c-0.28814 0 -0.42373 -0.20322 -0.42373 -0.49136 l0 -6.6949 l-1.4237 0 c-0.11864 0 -0.16949 -0.067797 -0.16949 -0.16949 l0 -0.67797 c0 -0.23729 0.13559 -0.3561 0.35593 -0.3561 l1.2373 0 l0 -1.8134 c0 -2.339 1.5085 -3.4408 3.4746 -3.4408 c0.83051 0 1.5424 0.23746 2.1017 0.59322 z M92.37268644067797 20.3731 c0.47458 0 0.81356 -0.18661 0.81356 -0.79678 c0 -2.1695 -1.678 -4.0847 -4.1017 -4.0847 c-2.3559 0 -4.1695 1.8814 -4.1695 4.3051 c0 2.5085 1.9153 4.3047 4.2881 4.3047 c1.4915 0 2.661 -0.71153 3.4237 -1.6946 c0.084746 -0.11864 0.067797 -0.20339 -0.033898 -0.30508 l-0.22034 -0.28814 c-0.10153 -0.13559 -0.22034 -0.11864 -0.33898 -0.016784 c-0.64407 0.64407 -1.5763 1.1525 -2.7119 1.1525 c-1.8136 0 -2.8983 -1.2712 -3.0507 -2.5763 l6.1015 0 z M86.25408644067797 19.339 c0.033898 -1.1356 0.9322 -2.661 2.8136 -2.661 s2.7458 1.5763 2.7966 2.661 l-5.6102 0 z"></path></g><g id="slogan_text" rel="mainfill" name="slogan_text" feature="slogan_text" xmlns:name="sloganText_mainfill" groupname="slogan_text" fill="#ffffff" transform="translate(101.04347531971734, 80.43475319717345) scale(0.9565246802826547)"><path d="M5.7 23.52 l0 -12.54 l-4.22 0 c-0.26 0 -0.48 -0.22 -0.48 -0.5 c0 -0.26 0.22 -0.48 0.48 -0.48 l9.4 0 c0.26 0 0.48 0.22 0.48 0.48 c0 0.28 -0.22 0.5 -0.48 0.5 l-4.22 0 l0 12.54 c0 0.26 -0.22 0.48 -0.48 0.48 s-0.48 -0.22 -0.48 -0.48 z M14.82 23.52 l0 -8.82 c0 -0.28 0.22 -0.48 0.5 -0.48 c0.24 0 0.46 0.2 0.46 0.48 l0 2.16 c0.04 -0.08 0.08 -0.16 0.14 -0.24 c0.74 -1.16 2.04 -2.4 3.92 -2.4 c0.26 0 0.48 0.2 0.48 0.48 c0 0.26 -0.22 0.48 -0.48 0.48 c-1.28 0 -2.16 0.72 -2.84 1.6 c-0.66 0.88 -1.04 1.88 -1.18 2.28 c-0.04 0.08 -0.04 0.12 -0.04 0.16 l0 4.3 c0 0.28 -0.22 0.48 -0.46 0.48 c-0.28 0 -0.5 -0.2 -0.5 -0.48 z M23.400000000000002 20 l0 -5.34 c0 -0.28 0.22 -0.48 0.48 -0.48 l0 0 c0.26 0 0.48 0.2 0.48 0.48 l0 0 l0 5.34 c0 1.68 1.34 3.02 3 3.04 l0 0 c1.68 -0.02 3.04 -1.36 3.04 -3.04 l0 0 l0 -5.34 l0 0 c0 -0.28 0.24 -0.48 0.48 -0.48 l0 0 c0.28 0 0.5 0.2 0.5 0.48 l0 0 l0 5.34 c0 2.2 -1.78 4 -4.02 4 l0 0 c-2.2 0 -3.96 -1.8 -3.96 -4 l0 0 z M39.92 24 c-2.64 0 -4.76 -2.2 -4.76 -4.88 c0 -2.72 2.12 -4.92 4.76 -4.92 c2.52 0 4.52 2 4.72 4.56 l0 0.02 l0 0.06 c0 0.26 -0.22 0.44 -0.48 0.44 l-8.04 0 c0.1 2.14 1.78 3.76 3.8 3.76 c1.3 0 2.5 -0.68 3.16 -1.78 c0.14 -0.24 0.44 -0.28 0.64 -0.16 c0.22 0.16 0.3 0.44 0.16 0.68 c-0.84 1.34 -2.3 2.22 -3.96 2.22 z M39.92 15.16 c-1.84 0 -3.38 1.32 -3.74 3.18 l7.42 0 c-0.32 -1.84 -1.88 -3.18 -3.68 -3.18 z  M58.1 24 c-2.64 0 -4.76 -2.2 -4.76 -4.88 c0 -2.72 2.12 -4.92 4.76 -4.92 c2.52 0 4.52 2 4.72 4.56 l0 0.02 l0 0.06 c0 0.26 -0.22 0.44 -0.48 0.44 l-8.04 0 c0.1 2.14 1.78 3.76 3.8 3.76 c1.3 0 2.5 -0.68 3.16 -1.78 c0.14 -0.24 0.44 -0.28 0.64 -0.16 c0.22 0.16 0.3 0.44 0.16 0.68 c-0.84 1.34 -2.3 2.22 -3.96 2.22 z M58.1 15.16 c-1.84 0 -3.38 1.32 -3.74 3.18 l7.42 0 c-0.32 -1.84 -1.88 -3.18 -3.68 -3.18 z M73.22 23.52 l0 -5.32 c0 -1.66 -1.34 -3.02 -3.02 -3.02 c-1.66 0 -3 1.36 -3.04 3.02 l0 5.32 l0 0.08 c-0.02 0.08 -0.04 0.16 -0.1 0.22 c-0.08 0.12 -0.22 0.18 -0.36 0.18 l-0.12 0 c-0.14 -0.04 -0.26 -0.14 -0.32 -0.26 c-0.02 -0.02 -0.02 -0.04 -0.02 -0.06 s-0.02 -0.04 -0.02 -0.04 l0 -0.12 l0 -5.32 l0 -0.16 l0 -3.34 c0 -0.26 0.2 -0.48 0.48 -0.48 c0.26 0 0.46 0.22 0.46 0.48 l0 0.94 c0.72 -0.86 1.82 -1.42 3.04 -1.42 c2.2 0 3.98 1.8 3.98 3.98 l0 5.32 c0 0.28 -0.22 0.48 -0.48 0.48 s-0.48 -0.2 -0.48 -0.48 z M81.42 14.2 c0.24 0 0.48 0.24 0.48 0.48 s-0.24 0.48 -0.48 0.48 l-1.26 0 l0 7.14 c0 0.48 0.48 0.72 0.72 0.72 s0.5 0.26 0.5 0.5 s-0.26 0.48 -0.5 0.48 c-0.98 0 -1.72 -0.72 -1.72 -1.7 l0 -7.14 l-1.22 0 c-0.48 0 -0.48 -0.24 -0.48 -0.48 s0 -0.48 0.48 -0.48 l1.22 0 l0 -3.64 c0 -0.24 0.24 -0.48 0.48 -0.48 c0.26 0 0.52 0.24 0.52 0.48 l0 3.64 l1.26 0 z M90.54 24 c-2.64 0 -4.76 -2.2 -4.76 -4.88 c0 -2.72 2.12 -4.92 4.76 -4.92 c2.52 0 4.52 2 4.72 4.56 l0 0.02 l0 0.06 c0 0.26 -0.22 0.44 -0.48 0.44 l-8.04 0 c0.1 2.14 1.78 3.76 3.8 3.76 c1.3 0 2.5 -0.68 3.16 -1.78 c0.14 -0.24 0.44 -0.28 0.64 -0.16 c0.22 0.16 0.3 0.44 0.16 0.68 c-0.84 1.34 -2.3 2.22 -3.96 2.22 z M90.54 15.16 c-1.84 0 -3.38 1.32 -3.74 3.18 l7.42 0 c-0.32 -1.84 -1.88 -3.18 -3.68 -3.18 z M98.66000000000001 23.52 l0 -8.82 c0 -0.28 0.22 -0.48 0.5 -0.48 c0.24 0 0.46 0.2 0.46 0.48 l0 2.16 c0.04 -0.08 0.08 -0.16 0.14 -0.24 c0.74 -1.16 2.04 -2.4 3.92 -2.4 c0.26 0 0.48 0.2 0.48 0.48 c0 0.26 -0.22 0.48 -0.48 0.48 c-1.28 0 -2.16 0.72 -2.84 1.6 c-0.66 0.88 -1.04 1.88 -1.18 2.28 c-0.04 0.08 -0.04 0.12 -0.04 0.16 l0 4.3 c0 0.28 -0.22 0.48 -0.46 0.48 c-0.28 0 -0.5 -0.2 -0.5 -0.48 z M110.38000000000001 14.2 c0.24 0 0.48 0.24 0.48 0.48 s-0.24 0.48 -0.48 0.48 l-1.26 0 l0 7.14 c0 0.48 0.48 0.72 0.72 0.72 s0.5 0.26 0.5 0.5 s-0.26 0.48 -0.5 0.48 c-0.98 0 -1.72 -0.72 -1.72 -1.7 l0 -7.14 l-1.22 0 c-0.48 0 -0.48 -0.24 -0.48 -0.48 s0 -0.48 0.48 -0.48 l1.22 0 l0 -3.64 c0 -0.24 0.24 -0.48 0.48 -0.48 c0.26 0 0.52 0.24 0.52 0.48 l0 3.64 l1.26 0 z M123.18 14.2 c0.26 0 0.48 0.2 0.48 0.48 l0 8.84 c0 0.26 -0.22 0.48 -0.48 0.48 s-0.48 -0.22 -0.48 -0.48 l0 -1.46 c-0.84 1.16 -2.18 1.94 -3.68 1.94 c-2.58 0 -4.64 -2.22 -4.64 -4.9 s2.06 -4.9 4.64 -4.9 c1.5 0 2.84 0.76 3.68 1.92 l0 -1.44 c0 -0.28 0.22 -0.48 0.48 -0.48 z M119.02000000000001 23.04 c2.02 0 3.68 -1.74 3.68 -3.94 s-1.66 -3.96 -3.68 -3.96 c-2 0 -3.68 1.76 -3.68 3.96 s1.68 3.94 3.68 3.94 z M127.84 23.52 l0 -8.84 c0 -0.28 0.22 -0.48 0.48 -0.48 l0 0 c0.28 0 0.5 0.2 0.5 0.48 l0 0 l0 8.84 c0 0.26 -0.22 0.48 -0.5 0.48 l0 0 c-0.26 0 -0.48 -0.22 -0.48 -0.48 l0 0 z M127.84 11.94 l0 -0.46 c0 -0.26 0.22 -0.48 0.48 -0.48 l0 0 c0.28 0 0.5 0.22 0.5 0.48 l0 0 l0 0.46 c0 0.28 -0.22 0.52 -0.5 0.52 l0 0 c-0.26 0 -0.48 -0.24 -0.48 -0.52 l0 0 z M140.44 23.52 l0 -5.32 c0 -1.66 -1.34 -3.02 -3.02 -3.02 c-1.66 0 -3 1.36 -3.04 3.02 l0 5.32 l0 0.08 c-0.02 0.08 -0.04 0.16 -0.1 0.22 c-0.08 0.12 -0.22 0.18 -0.36 0.18 l-0.12 0 c-0.14 -0.04 -0.26 -0.14 -0.32 -0.26 c-0.02 -0.02 -0.02 -0.04 -0.02 -0.06 s-0.02 -0.04 -0.02 -0.04 l0 -0.12 l0 -5.32 l0 -0.16 l0 -3.34 c0 -0.26 0.2 -0.48 0.48 -0.48 c0.26 0 0.46 0.22 0.46 0.48 l0 0.94 c0.72 -0.86 1.82 -1.42 3.04 -1.42 c2.2 0 3.98 1.8 3.98 3.98 l0 5.32 c0 0.28 -0.22 0.48 -0.48 0.48 s-0.48 -0.2 -0.48 -0.48 z M159.72 23.54 l0 -5.34 c-0.04 -1.66 -1.36 -3.04 -3.04 -3.04 c-1.66 0 -3.02 1.38 -3.02 3.04 l0 5.34 l0 0.06 c0 0.02 -0.02 0.04 -0.02 0.04 l0 0.04 c-0.04 0.12 -0.14 0.2 -0.24 0.26 c-0.08 0.04 -0.16 0.06 -0.24 0.06 l-0.06 0 l-0.04 0 c-0.02 0 -0.04 -0.02 -0.04 -0.02 c-0.04 0 -0.08 -0.04 -0.12 -0.06 c-0.02 0 -0.04 -0.02 -0.06 -0.04 l-0.06 -0.06 c-0.02 -0.02 -0.02 -0.04 -0.04 -0.04 c0 -0.02 0 -0.02 -0.02 -0.04 c0 0 0 -0.02 -0.02 -0.04 c0 -0.02 0 -0.04 -0.02 -0.06 l0 -0.06 l0 -0.04 l0 -5.34 c0 -1.66 -1.34 -3.04 -3.02 -3.04 s-3.02 1.38 -3.02 3.04 l0 5.34 c0 0.16 -0.08 0.3 -0.22 0.38 c-0.02 0.02 -0.08 0.06 -0.12 0.06 c-0.02 0.02 -0.04 0.02 -0.08 0.02 l-0.06 0 l-0.06 0 c-0.18 -0.02 -0.34 -0.18 -0.4 -0.36 l0 -0.1 l0 -5.34 l0 -0.16 l0 -3.36 c0 -0.26 0.22 -0.46 0.46 -0.46 c0.28 0 0.48 0.2 0.48 0.46 l0 0.94 c0.72 -0.86 1.8 -1.4 3.02 -1.4 c1.52 0 2.82 0.84 3.5 2.08 c0.7 -1.24 2.02 -2.08 3.52 -2.08 c2.2 0 3.98 1.78 3.98 3.98 l0 5.34 c0 0.24 -0.2 0.46 -0.48 0.46 c-0.26 0 -0.46 -0.22 -0.46 -0.46 z M168.78 24 c-2.64 0 -4.76 -2.2 -4.76 -4.88 c0 -2.72 2.12 -4.92 4.76 -4.92 c2.52 0 4.52 2 4.72 4.56 l0 0.02 l0 0.06 c0 0.26 -0.22 0.44 -0.48 0.44 l-8.04 0 c0.1 2.14 1.78 3.76 3.8 3.76 c1.3 0 2.5 -0.68 3.16 -1.78 c0.14 -0.24 0.44 -0.28 0.64 -0.16 c0.22 0.16 0.3 0.44 0.16 0.68 c-0.84 1.34 -2.3 2.22 -3.96 2.22 z M168.78 15.16 c-1.84 0 -3.38 1.32 -3.74 3.18 l7.42 0 c-0.32 -1.84 -1.88 -3.18 -3.68 -3.18 z M183.90000000000003 23.52 l0 -5.32 c0 -1.66 -1.34 -3.02 -3.02 -3.02 c-1.66 0 -3 1.36 -3.04 3.02 l0 5.32 l0 0.08 c-0.02 0.08 -0.04 0.16 -0.1 0.22 c-0.08 0.12 -0.22 0.18 -0.36 0.18 l-0.12 0 c-0.14 -0.04 -0.26 -0.14 -0.32 -0.26 c-0.02 -0.02 -0.02 -0.04 -0.02 -0.06 s-0.02 -0.04 -0.02 -0.04 l0 -0.12 l0 -5.32 l0 -0.16 l0 -3.34 c0 -0.26 0.2 -0.48 0.48 -0.48 c0.26 0 0.46 0.22 0.46 0.48 l0 0.94 c0.72 -0.86 1.82 -1.42 3.04 -1.42 c2.2 0 3.98 1.8 3.98 3.98 l0 5.32 c0 0.28 -0.22 0.48 -0.48 0.48 s-0.48 -0.2 -0.48 -0.48 z M192.10000000000002 14.2 c0.24 0 0.48 0.24 0.48 0.48 s-0.24 0.48 -0.48 0.48 l-1.26 0 l0 7.14 c0 0.48 0.48 0.72 0.72 0.72 s0.5 0.26 0.5 0.5 s-0.26 0.48 -0.5 0.48 c-0.98 0 -1.72 -0.72 -1.72 -1.7 l0 -7.14 l-1.22 0 c-0.48 0 -0.48 -0.24 -0.48 -0.48 s0 -0.48 0.48 -0.48 l1.22 0 l0 -3.64 c0 -0.24 0.24 -0.48 0.48 -0.48 c0.26 0 0.52 0.24 0.52 0.48 l0 3.64 l1.26 0 z"></path></g><g id="SvgjsG1679" rel="mainfill" name="symbol" feature="symbol" xmlns:name="symbol_mainfill" fill="#da3131" transform="translate(1.5557681679176358, 11.127007014221764) scale(0.9723107224251122)"><path d="M88.201,27.481c-1.52-2.822-4.684-4.06-6.895-4.594c-0.163-2.047-0.898-4.907-3.49-6.816  c-2.276-1.677-4.979-1.736-7.09-1.388c-0.481-2.174-1.85-4.591-4.938-6.29c-3.025-1.664-5.897-1.298-7.976-0.406  c-1.409-1.703-3.744-3.82-6.726-3.983c-4.65-0.264-7.788,2.051-9.473,3.784c-2.163-0.871-5.72-1.682-9.124,0.303  c-3.064,1.788-4.382,4.724-4.949,6.861c-2.105-0.033-5.057,0.337-7.142,2.303c-2.655,2.505-3.036,5.943-2.96,8.121  c-1.372,0.907-2.783,2.527-3.422,5.2c-0.852,3.563,1.337,6.69,3.386,8.536c2.159,9.521,4.692,20.597,6.707,29.537  c1.465,6.511,2.944,13.016,4.41,19.525c0.382,1.696,1.456,2.662,3.109,3.077c5.081,1.281,10.227,2.082,15.464,2.386  c7.737,0.451,15.319-0.479,22.836-2.263c2.164-0.513,3.274-1.767,3.734-3.897c1.438-6.646,2.962-13.276,4.453-19.914  c1.896-8.434,4.343-19.033,6.38-28.055c1.796-1.022,3.167-3.252,3.837-5.008C89.308,31.941,89.261,29.449,88.201,27.481z   M37.005,86.459c-0.295-1.549-4.33-44.067-4.33-44.067s8.743,1.16,10.267,1.361c1.509,0.2,2.726,44.128,2.726,44.128  S37.3,88.014,37.005,86.459z M65.4,86.459c-0.297,1.555-8.662,1.422-8.662,1.422s1.609-44.045,2.726-44.128  c1.964-0.144,10.269-1.361,10.269-1.361S65.695,84.91,65.4,86.459z M19.964,34.784c-0.803-0.764-1.54-1.772-1.298-2.784  c0.44-1.842,1.311-1.96,1.833-2.167l2.7-0.61l-0.646-2.866c-0.008-0.035-0.703-3.598,1.277-5.466  c1.199-1.132,4.09-1.015,5.293-0.784l2.872,0.557l0.118-2.926c0.001-0.037,0.181-3.747,2.896-5.331  c2.581-1.506,5.875,0.571,5.896,0.584l2.135,1.381l1.364-2.147c0.09-0.142,1.709-3.583,5.887-3.52  c2.75,0.042,4.228,2.296,4.875,3.417l1.294,3.03l2.298-1.947c0.219-0.185,2.197-1.767,4.621-0.434  c3.02,1.661,3.309,4.125,3.205,4.56L66,20.167l3.25-0.75c0.931-0.417,4.01-0.491,5.601,0.68c1.882,1.386,1.464,4.492,1.462,4.506  l-0.407,2.653l2.675,0.226c1.348,0.114,4.379-0.148,5.336,1.893c1.351,2.878-0.553,5.291-1.443,6.014L19.964,34.784z"></path><g><path d="M36.753,29.283c-0.178,0-0.359-0.019-0.54-0.059c-1.348-0.297-2.201-1.63-1.904-2.979c0.099-0.45,1.069-4.435,4.608-5.866   c2.441-0.986,5.245-0.45,8.332,1.596c1.151,0.763,1.465,2.314,0.703,3.465c-0.763,1.15-2.314,1.465-3.465,0.703   c-1.585-1.051-2.899-1.454-3.694-1.128c-0.991,0.4-1.534,2.006-1.6,2.306C38.935,28.487,37.901,29.283,36.753,29.283z"></path></g></g></svg>